<svg
        data-name="Capa 2"
        id="Capa_2"
        viewBox="0 0 155.65 39.52"
        width="130"
        xmlns="http://www.w3.org/2000/svg"
        >
<defs>
<style>
    .cls-1 {
    fill: #fff;
    }

    .cls-2 {
    fill: #39397f;
    }
</style>
</defs>
<g id="Capa_1-2">
<g>
    <path
            class="cls-1"
            d="m55.72,11.87c0-2.29.6-4.08,1.81-5.39s3-1.96,5.38-1.96c1.51,0,2.85.31,4.02.92v4.75c-.83-.46-1.76-.69-2.8-.69-.97,0-1.7.23-2.21.68-.51.46-.77,1.13-.77,2.03v1.59h5.37v4.96h-5.37v16.35h-5.43v-16.35h-3.35v-4.96h3.35v-1.94Z"
    />
    <path
            class="cls-1"
            d="m75.43,9.69c-.66.65-1.47.98-2.44.98s-1.78-.33-2.44-.98c-.66-.65-.99-1.46-.99-2.41s.33-1.76.99-2.41c.66-.65,1.47-.98,2.44-.98s1.78.33,2.44.98c.66.65.99,1.46.99,2.41s-.33,1.75-.99,2.41Z"
    />
    <rect class="cls-1" height="21.31" width="5.43" x="70.27" y="13.81" />
    <path
            class="cls-1"
            d="m92.09,13.3c2.52,0,4.53.75,6.05,2.25,1.52,1.5,2.28,3.51,2.28,6.01v13.55h-5.45v-11.8c0-1.44-.43-2.59-1.28-3.46-.85-.86-1.98-1.3-3.4-1.3s-2.68.45-3.6,1.34c-.92.89-1.38,2.06-1.38,3.52v11.69h-5.43V13.81h5.43v2.37c1.71-1.92,3.97-2.88,6.78-2.88Z"
    />
    <path
            class="cls-1"
            d="m114.41,35.63c-3.25,0-5.98-1.07-8.17-3.2-2.2-2.14-3.3-4.79-3.3-7.96s1.1-5.82,3.3-7.96c2.2-2.14,4.92-3.2,8.17-3.2,2.12,0,4.04.48,5.77,1.43,1.72.95,3.07,2.24,4.05,3.88l-4.73,2.84c-.49-.87-1.18-1.57-2.07-2.09-.89-.52-1.89-.79-3.01-.79-1.67,0-3.07.56-4.18,1.69-1.12,1.13-1.67,2.53-1.67,4.2s.56,3.07,1.67,4.2c1.12,1.13,2.51,1.69,4.18,1.69,1.1,0,2.1-.26,3-.79.9-.52,1.59-1.23,2.08-2.11l4.73,2.84c-.98,1.65-2.33,2.95-4.05,3.9-1.72.95-3.64,1.43-5.77,1.43Z"
    />
    <path class="cls-1" d="m126.47,35.12V5.01h5.43v30.1h-5.43Z" />
    <path
            class="cls-1"
            d="m145.71,35.63c-3.01,0-5.42-.82-7.22-2.46-1.81-1.64-2.71-3.82-2.71-6.54v-12.82h5.43v12.06c0,1.36.41,2.45,1.23,3.27.82.82,1.91,1.22,3.28,1.22s2.45-.41,3.28-1.22c.82-.82,1.23-1.9,1.23-3.27v-12.06h5.43v12.82c0,2.71-.91,4.88-2.72,6.53-1.82,1.65-4.22,2.47-7.21,2.47Z"
    />
    <g>
        <circle class="cls-1" cx="19.76" cy="19.76" r="19.76" />
        <g>
            <rect
                    class="cls-2"
                    height="16.66"
                    rx="3.34"
                    ry="3.34"
                    transform="translate(-1.37 38.15) rotate(-90)"
                    width="6.67"
                    x="15.05"
                    y="11.43"
            />
            <rect
                    class="cls-2"
                    height="6.67"
                    rx="3.34"
                    ry="3.34"
                    transform="translate(-17.43 41.5) rotate(-90)"
                    width="6.67"
                    x="8.7"
                    y="26.13"
            />
            <rect
                    class="cls-2"
                    height="15.44"
                    rx="3.34"
                    ry="3.34"
                    transform="translate(13.04 33.14) rotate(-90)"
                    width="6.67"
                    x="19.76"
                    y="2.33"
            />
        </g>
    </g>
</g>
</g>
        </svg>
